<svg width="356" height="219" viewBox="0 0 356 219" fill="none" xmlns="http://www.w3.org/2000/svg">
<path fill-rule="evenodd" clip-rule="evenodd" d="M262.108 216.618C281.363 193.699 292.96 164.131 292.96 131.855C292.96 59.0334 233.926 0 161.105 0C88.2834 0 29.25 59.0334 29.25 131.855C29.25 164.131 40.8469 193.699 60.1013 216.618H262.108Z" fill="#EBF3FF"/>
<g opacity="0.15">
<path fill-rule="evenodd" clip-rule="evenodd" d="M230.208 94.8194C230.045 95.014 229.938 95.2503 229.902 95.5019L225.689 124.175C225.598 124.79 225.933 125.388 226.504 125.633L229.947 127.108C230.053 127.154 230.16 127.185 230.267 127.202C230.47 127.236 230.653 127.392 230.653 127.598V136.505C230.653 136.838 230.922 137.107 231.255 137.107C231.587 137.107 231.857 136.838 231.857 136.505V125.856C231.857 125.854 231.857 125.851 231.857 125.849L231.857 119.649L231.857 93.7987C231.857 93.4792 231.458 93.3338 231.252 93.5783L230.208 94.8194Z" fill="#96ADCF"/>
<path fill-rule="evenodd" clip-rule="evenodd" d="M230.208 94.2159C230.045 94.4105 229.938 94.6468 229.902 94.8984L225.689 123.571C225.598 124.186 225.933 124.785 226.504 125.029L229.947 126.505C230.053 126.55 230.16 126.581 230.267 126.599C230.47 126.633 230.653 126.789 230.653 126.994V135.902C230.653 136.234 230.922 136.504 231.255 136.504C231.587 136.504 231.857 136.234 231.857 135.902V125.252C231.857 125.25 231.857 125.248 231.857 125.246L231.857 119.045L231.857 93.1952C231.857 92.8757 231.458 92.7302 231.252 92.9748L230.208 94.2159Z" fill="#839FC7"/>
<path fill-rule="evenodd" clip-rule="evenodd" d="M195.998 157.872C196.248 157.917 196.506 157.891 196.742 157.797L223.68 147.109C224.257 146.88 224.608 146.29 224.535 145.673L224.091 141.954C224.078 141.84 224.051 141.731 224.013 141.63C223.941 141.437 223.984 141.201 224.162 141.098L231.877 136.644C232.165 136.478 232.263 136.11 232.097 135.822C231.931 135.534 231.563 135.435 231.275 135.601L216.677 144.03C216.671 144.033 216.665 144.036 216.659 144.04L194.289 156.955C194.013 157.115 194.086 157.533 194.401 157.589L195.998 157.872Z" fill="#96ADCF"/>
<path fill-rule="evenodd" clip-rule="evenodd" d="M195.697 157.569C195.947 157.613 196.205 157.587 196.441 157.493L223.379 146.805C223.957 146.576 224.308 145.987 224.234 145.37L223.79 141.65C223.777 141.536 223.75 141.428 223.712 141.326C223.64 141.134 223.683 140.897 223.862 140.794L231.576 136.34C231.864 136.174 231.962 135.806 231.796 135.518C231.63 135.23 231.262 135.131 230.974 135.298L216.376 143.726C216.369 143.73 216.362 143.734 216.356 143.738L193.989 156.651C193.712 156.811 193.786 157.229 194.1 157.285L195.697 157.569Z" fill="#839FC7"/>
<path fill-rule="evenodd" clip-rule="evenodd" d="M268.1 156.473C268.013 156.234 267.861 156.024 267.662 155.866L244.937 137.881C244.45 137.495 243.764 137.486 243.266 137.858L240.267 140.102C240.175 140.171 240.094 140.249 240.026 140.332C239.895 140.491 239.668 140.572 239.49 140.469L231.776 136.015C231.488 135.849 231.12 135.948 230.954 136.236C230.788 136.524 230.886 136.892 231.174 137.058L245.772 145.486C245.78 145.491 245.788 145.495 245.796 145.499L268.159 158.411C268.436 158.57 268.761 158.298 268.652 157.997L268.1 156.473Z" fill="#96ADCF"/>
<path fill-rule="evenodd" clip-rule="evenodd" d="M268.1 155.869C268.013 155.63 267.861 155.42 267.662 155.262L244.937 137.278C244.45 136.892 243.764 136.883 243.266 137.255L240.267 139.499C240.175 139.568 240.094 139.645 240.026 139.729C239.895 139.888 239.668 139.968 239.49 139.865L231.776 135.412C231.488 135.246 231.12 135.344 230.954 135.632C230.788 135.92 230.886 136.288 231.174 136.455L245.772 144.883C245.78 144.887 245.788 144.891 245.795 144.895L268.159 157.807C268.436 157.967 268.761 157.694 268.652 157.394L268.1 155.869Z" fill="#839FC7"/>
<path fill-rule="evenodd" clip-rule="evenodd" d="M232.803 138.342C233.662 137.974 234.265 137.121 234.265 136.126C234.265 134.796 233.187 133.718 231.857 133.718C230.527 133.718 229.449 134.796 229.449 136.126C229.449 137.121 230.051 137.974 230.911 138.342L226.138 217.999H237.576L232.803 138.342Z" fill="#96ADCF"/>
<path fill-rule="evenodd" clip-rule="evenodd" d="M232.2 138.342C233.06 137.974 233.663 137.121 233.663 136.126C233.663 134.796 232.585 133.718 231.255 133.718C229.925 133.718 228.847 134.796 228.847 136.126C228.847 137.121 229.449 137.974 230.309 138.342L225.536 217.999H236.974L232.2 138.342Z" fill="#839FC7"/>
</g>
<g opacity="0.6">
<rect x="49.4677" y="107.242" width="23.4823" height="55.3762" rx="11.7412" fill="#C4DCFF"/>
<rect x="60.6832" y="129.672" width="1.40193" height="86.5691" rx="0.700965" fill="#839FC7"/>
<rect x="66.4669" y="132.751" width="1.40193" height="11.8169" rx="0.700965" transform="rotate(30 66.4669 132.751)" fill="#839FC7"/>
<rect width="1.40193" height="16.625" rx="0.700965" transform="matrix(0.866025 -0.5 -0.5 -0.866025 61.0718 151.624)" fill="#839FC7"/>
</g>
<rect x="80.2339" y="61.5312" width="33.5785" height="79.185" rx="16.7892" fill="#C4DCFF"/>
<rect x="96.2715" y="93.6055" width="2.00468" height="123.789" rx="1.00234" fill="#839FC7"/>
<rect x="104.542" y="98.0078" width="2.00468" height="16.8975" rx="1.00234" transform="rotate(30 104.542 98.0078)" fill="#839FC7"/>
<rect width="2.00468" height="23.7729" rx="1.00234" transform="matrix(0.866025 -0.5 -0.5 -0.866025 96.8269 124.997)" fill="#839FC7"/>
<path opacity="0.8" fill-rule="evenodd" clip-rule="evenodd" d="M125.064 43.0122C125.064 43.0725 125.064 43.1326 125.062 43.1925C128.832 43.286 131.858 46.371 131.858 50.1629C131.858 53.9541 128.833 57.0386 125.064 57.1334V57.1356H111.119V57.1334C111.06 57.1348 111 57.1356 110.94 57.1356C107.089 57.1356 103.968 54.0138 103.968 50.1629C103.968 46.312 107.089 43.1903 110.94 43.1903C111.001 43.1903 111.061 43.191 111.121 43.1926C111.12 43.1326 111.119 43.0725 111.119 43.0122C111.119 39.1613 114.241 36.0396 118.092 36.0396C121.943 36.0396 125.064 39.1613 125.064 43.0122Z" fill="white"/>
<path opacity="0.6" fill-rule="evenodd" clip-rule="evenodd" d="M253.494 64.0781C253.494 64.1089 253.493 64.1396 253.492 64.1702C255.393 64.2174 256.919 65.7731 256.919 67.6853C256.919 69.597 255.394 71.1524 253.494 71.2003V71.2009H253.462C253.443 71.2012 253.423 71.2014 253.403 71.2014C253.384 71.2014 253.364 71.2012 253.344 71.2009H246.461V71.2003C246.431 71.201 246.401 71.2014 246.371 71.2014C244.429 71.2014 242.855 69.6272 242.855 67.6853C242.855 65.7434 244.429 64.1691 246.371 64.1691C246.402 64.1691 246.432 64.1695 246.462 64.1703C246.462 64.1397 246.461 64.109 246.461 64.0781C246.461 62.1362 248.035 60.562 249.977 60.562C251.919 60.562 253.494 62.1362 253.494 64.0781Z" fill="white"/>
<path fill-rule="evenodd" clip-rule="evenodd" d="M194.684 23.583C194.684 17.3552 199.732 12.3066 205.96 12.3066C210.582 12.3066 214.554 15.0869 216.295 19.0661C217.416 18.2733 218.785 17.8075 220.262 17.8075C223.737 17.8075 226.61 20.3859 227.073 23.7341H229.652C232.807 23.7341 235.365 26.2922 235.365 29.4478C235.365 32.6034 232.807 35.1615 229.652 35.1615H195.827C192.671 35.1615 190.113 32.6034 190.113 29.4478C190.113 26.6825 192.077 24.376 194.687 23.8477C194.685 23.7597 194.684 23.6715 194.684 23.583Z" fill="white"/>
<path opacity="0.6" fill-rule="evenodd" clip-rule="evenodd" d="M117.26 98.6565C117.26 96.1161 119.319 94.0566 121.86 94.0566C123.745 94.0566 125.365 95.1908 126.076 96.8141C126.533 96.4907 127.091 96.3006 127.694 96.3006C129.111 96.3006 130.283 97.3522 130.472 98.7179H131.524C132.811 98.7179 133.855 99.7614 133.855 101.049C133.855 102.336 132.811 103.379 131.524 103.379H117.726C116.439 103.379 115.395 102.336 115.395 101.049C115.395 99.9207 116.196 98.9798 117.261 98.7643C117.26 98.7285 117.26 98.6926 117.26 98.6565Z" fill="white"/>
<path fill-rule="evenodd" clip-rule="evenodd" d="M279.279 24.2989C279.021 24.6049 278.854 24.9765 278.796 25.3721L272.172 70.4596C272.03 71.4263 272.556 72.3675 273.454 72.7524L278.868 75.0727C279.034 75.1439 279.203 75.1925 279.37 75.2204C279.69 75.2735 279.977 75.5187 279.977 75.8422V89.8488C279.977 90.3716 280.401 90.7954 280.924 90.7954C281.447 90.7954 281.87 90.3716 281.87 89.8488V73.1094C281.87 73.1039 281.87 73.0985 281.87 73.093L281.87 22.6938C281.87 22.1914 281.243 21.9627 280.92 22.3473L279.279 24.2989Z" fill="#839FC7"/>
<path fill-rule="evenodd" clip-rule="evenodd" d="M279.279 23.3521C279.021 23.6581 278.854 24.0297 278.796 24.4253L272.172 69.5128C272.03 70.4795 272.556 71.4207 273.454 71.8056L278.868 74.1259C279.034 74.1971 279.203 74.2457 279.37 74.2736C279.69 74.3267 279.977 74.5719 279.977 74.8954V88.902C279.977 89.4248 280.401 89.8486 280.924 89.8486C281.447 89.8486 281.87 89.4248 281.87 88.902V72.1626C281.87 72.1571 281.87 72.1517 281.87 72.1462L281.87 21.7471C281.87 21.2446 281.243 21.016 280.92 21.4005L279.279 23.3521Z" fill="#C4DCFF"/>
<path fill-rule="evenodd" clip-rule="evenodd" d="M225.483 123.45C225.877 123.52 226.282 123.479 226.654 123.332L269.013 106.525C269.921 106.164 270.473 105.238 270.357 104.268L269.659 98.4187C269.638 98.239 269.596 98.0687 269.536 97.9094C269.422 97.6064 269.491 97.2346 269.771 97.0728L281.902 90.0692C282.354 89.8078 282.51 89.2288 282.248 88.776C281.987 88.3233 281.408 88.1681 280.955 88.4295L258 101.683C257.988 101.689 257.977 101.696 257.966 101.703L222.797 122.008C222.362 122.259 222.477 122.917 222.972 123.005L225.483 123.45Z" fill="#839FC7"/>
<path fill-rule="evenodd" clip-rule="evenodd" d="M225.01 122.977C225.403 123.047 225.809 123.006 226.18 122.858L268.539 106.052C269.448 105.691 269.999 104.765 269.884 103.794L269.186 97.9456C269.165 97.7659 269.123 97.5956 269.063 97.4362C268.949 97.1332 269.018 96.7614 269.298 96.5996L281.428 89.596C281.881 89.3346 282.036 88.7557 281.775 88.3029C281.513 87.8501 280.934 87.695 280.482 87.9564L257.527 101.209C257.515 101.216 257.504 101.223 257.493 101.23L222.324 121.535C221.888 121.786 222.004 122.444 222.499 122.531L225.01 122.977Z" fill="#C4DCFF"/>
<path fill-rule="evenodd" clip-rule="evenodd" d="M338.861 121.249C338.725 120.874 338.487 120.543 338.173 120.295L302.438 92.0142C301.672 91.4079 300.594 91.3932 299.811 91.9786L295.095 95.5071C294.95 95.6156 294.824 95.7372 294.715 95.8688C294.51 96.1188 294.154 96.2454 293.873 96.0836L281.744 89.0806C281.291 88.8192 280.712 88.9743 280.451 89.4271C280.189 89.8799 280.344 90.4588 280.797 90.7202L303.752 103.973C303.765 103.981 303.778 103.988 303.791 103.995L338.955 124.297C339.39 124.548 339.902 124.119 339.731 123.647L338.861 121.249Z" fill="#839FC7"/>
<path fill-rule="evenodd" clip-rule="evenodd" d="M338.861 120.302C338.725 119.926 338.487 119.595 338.173 119.347L302.438 91.0665C301.672 90.4601 300.594 90.4455 299.811 91.0308L295.095 94.5594C294.95 94.6678 294.824 94.7895 294.715 94.9211C294.51 95.1711 294.154 95.2978 293.873 95.1359L281.744 88.1328C281.291 87.8714 280.712 88.0266 280.45 88.4793C280.189 88.9321 280.344 89.5111 280.797 89.7725L303.752 103.026C303.766 103.033 303.779 103.041 303.793 103.048L338.955 123.349C339.39 123.6 339.902 123.171 339.731 122.699L338.861 120.302Z" fill="#C4DCFF"/>
<path fill-rule="evenodd" clip-rule="evenodd" d="M283.357 92.7384C284.709 92.1605 285.657 90.8183 285.657 89.2549C285.657 87.1636 283.962 85.4683 281.87 85.4683C279.779 85.4683 278.084 87.1636 278.084 89.2549C278.084 90.8183 279.031 92.1605 280.383 92.7384L272.877 217.999H290.864L283.357 92.7384Z" fill="#839FC7"/>
<path fill-rule="evenodd" clip-rule="evenodd" d="M282.411 92.7384C283.763 92.1605 284.71 90.8183 284.71 89.2549C284.71 87.1636 283.015 85.4683 280.924 85.4683C278.832 85.4683 277.137 87.1636 277.137 89.2549C277.137 90.8183 278.085 92.1605 279.437 92.7384L271.931 217.999H289.917L282.411 92.7384Z" fill="#C4DCFF"/>
<path d="M291.998 215.364H282.383C271.242 215.364 276.048 212.053 278.867 211.411C272.567 209.164 277.209 204.931 280.393 206.697C278.404 198.992 285.201 200.597 286.527 204.931C289.18 200.437 293.822 202.684 291.004 207.499C295.811 205.412 295.811 209.586 293.822 210.87C298.63 211.672 295.943 213.177 293.29 213.177C296.44 214.942 294.119 215.364 291.998 215.364Z" fill="#839FC7"/>
<path d="M249.805 215.364H240.189C229.048 215.364 233.855 212.053 236.673 211.411C230.373 209.164 235.015 204.931 238.2 206.697C236.21 198.992 243.007 200.597 244.334 204.931C246.986 200.437 251.628 202.684 248.81 207.499C253.618 205.412 253.618 209.586 251.628 210.87C256.436 211.672 253.749 213.177 251.097 213.177C254.247 214.942 251.926 215.364 249.805 215.364Z" fill="#839FC7"/>
<path d="M278.489 216.243H259.658C237.841 216.243 247.254 210.036 252.773 208.832C240.436 204.619 249.526 196.681 255.762 199.992C251.866 185.546 265.178 188.556 267.775 196.681C272.97 188.255 282.06 192.468 276.541 201.497C285.956 197.584 285.956 205.409 282.06 207.816C291.476 209.321 286.214 212.142 281.019 212.142C287.188 215.453 282.642 216.243 278.489 216.243Z" fill="#A8CBFF"/>
<path d="M240.572 198.514C240.446 197.637 240.079 196.756 239.332 196.151C241.08 196.206 241.745 196.682 242.469 197.391C244.219 199.106 243.282 201.2 242.255 200.864C241.229 200.529 240.702 199.423 240.572 198.514Z" fill="#93ABCE"/>
<path d="M240.435 196.617C242.265 197.512 242.957 199.88 243.204 201.052L242.971 201.111C242.659 198.656 241.424 197.112 240.435 196.617C240.403 196.601 240.371 196.586 240.339 196.572C240.371 196.586 240.403 196.601 240.435 196.617Z" fill="#C4DCFF"/>
<path d="M242.099 197.256C242.401 197.633 242.31 198.211 242.244 198.488L242.188 198.477C242.37 197.919 242.261 197.462 242.099 197.256C242.094 197.249 242.089 197.243 242.083 197.236C242.089 197.243 242.094 197.249 242.099 197.256Z" fill="#C4DCFF"/>
<path d="M241.217 197.586C241.367 197.805 241.668 197.852 241.814 197.863L241.816 197.832C241.513 197.835 241.299 197.704 241.217 197.586C241.214 197.582 241.211 197.579 241.209 197.575C241.211 197.579 241.214 197.582 241.217 197.586Z" fill="#C4DCFF"/>
<path d="M242.819 198.128C243.014 198.57 242.777 199.106 242.642 199.356L242.591 199.331C242.91 198.838 242.923 198.369 242.819 198.128C242.816 198.12 242.813 198.113 242.809 198.105C242.813 198.112 242.816 198.12 242.819 198.128Z" fill="#C4DCFF"/>
<path d="M241.308 198.418C241.577 198.82 242.156 198.906 242.439 198.927L242.446 198.87C241.858 198.876 241.456 198.635 241.308 198.418C241.303 198.411 241.299 198.404 241.294 198.397C241.298 198.404 241.303 198.411 241.308 198.418Z" fill="#C4DCFF"/>
<path d="M241.297 199.339C241.673 199.923 242.452 200.069 242.833 200.109L242.839 200.028C242.052 200.014 241.503 199.654 241.297 199.339C241.29 199.329 241.284 199.319 241.278 199.309C241.284 199.319 241.29 199.329 241.297 199.339Z" fill="#C4DCFF"/>
<path d="M292.089 200.671C292.6 199.947 293.328 199.329 294.268 199.131C292.687 198.385 291.878 198.506 290.91 198.809C288.572 199.54 288.455 201.832 289.522 202C290.588 202.167 291.56 201.422 292.089 200.671Z" fill="#93ABCE"/>
<path d="M293.074 199.044C291.038 199.01 289.344 200.804 288.592 201.735L288.772 201.894C290.167 199.849 291.968 199.035 293.074 199.044C293.109 199.045 293.145 199.046 293.18 199.047C293.146 199.045 293.11 199.044 293.074 199.044Z" fill="#C4DCFF"/>
<path d="M291.301 198.857C290.86 199.056 290.679 199.612 290.612 199.888L290.667 199.904C290.759 199.324 291.063 198.967 291.301 198.857C291.308 198.853 291.316 198.85 291.324 198.847C291.316 198.85 291.309 198.853 291.301 198.857Z" fill="#C4DCFF"/>
<path d="M291.938 199.551C291.704 199.677 291.415 199.582 291.279 199.525L291.292 199.497C291.56 199.638 291.81 199.618 291.938 199.551C291.942 199.549 291.946 199.546 291.95 199.544C291.946 199.546 291.942 199.549 291.938 199.551Z" fill="#C4DCFF"/>
<path d="M290.264 199.305C289.889 199.611 289.857 200.196 289.864 200.48L289.921 200.481C289.86 199.896 290.062 199.473 290.264 199.305C290.27 199.3 290.277 199.295 290.283 199.29C290.277 199.294 290.27 199.3 290.264 199.305Z" fill="#C4DCFF"/>
<path d="M291.478 200.252C291.056 200.487 290.501 200.301 290.239 200.191L290.259 200.137C290.78 200.409 291.248 200.377 291.478 200.252C291.485 200.248 291.493 200.244 291.5 200.239C291.493 200.244 291.486 200.248 291.478 200.252Z" fill="#C4DCFF"/>
<path d="M291.069 201.077C290.469 201.426 289.709 201.202 289.351 201.064L289.382 200.99C290.09 201.334 290.742 201.263 291.069 201.077C291.08 201.071 291.09 201.064 291.1 201.058C291.09 201.064 291.08 201.071 291.069 201.077Z" fill="#C4DCFF"/>
<path d="M271.952 186.29C272.014 185.406 272.316 184.5 273.018 183.843C271.278 184.024 270.649 184.548 269.978 185.308C268.357 187.145 269.445 189.165 270.444 188.756C271.443 188.347 271.888 187.205 271.952 186.29Z" fill="#93ABCE"/>
<path d="M271.951 184.386C270.191 185.412 269.672 187.824 269.511 189.011L269.748 189.053C269.881 186.581 271.001 184.952 271.951 184.386C271.981 184.369 272.012 184.351 272.043 184.334C272.012 184.351 271.982 184.368 271.951 184.386Z" fill="#C4DCFF"/>
<path d="M270.337 185.146C270.064 185.545 270.197 186.115 270.282 186.386L270.337 186.371C270.116 185.827 270.191 185.364 270.337 185.146C270.342 185.14 270.347 185.133 270.352 185.126C270.347 185.133 270.342 185.139 270.337 185.146Z" fill="#C4DCFF"/>
<path d="M271.242 185.411C271.108 185.64 270.811 185.709 270.666 185.73L270.662 185.7C270.964 185.681 271.168 185.535 271.242 185.411C271.244 185.407 271.246 185.403 271.249 185.399C271.246 185.403 271.244 185.407 271.242 185.411Z" fill="#C4DCFF"/>
<path d="M269.683 186.066C269.521 186.521 269.796 187.038 269.949 187.278L269.998 187.249C269.644 186.781 269.597 186.314 269.683 186.066C269.685 186.058 269.688 186.05 269.691 186.042C269.688 186.05 269.685 186.058 269.683 186.066Z" fill="#C4DCFF"/>
<path d="M271.211 186.247C270.972 186.667 270.401 186.795 270.12 186.836L270.109 186.78C270.695 186.743 271.079 186.473 271.211 186.247C271.215 186.239 271.219 186.232 271.223 186.225C271.219 186.232 271.215 186.239 271.211 186.247Z" fill="#C4DCFF"/>
<path d="M271.289 187.165C270.957 187.774 270.19 187.977 269.813 188.044L269.801 187.964C270.585 187.892 271.106 187.494 271.289 187.165C271.295 187.154 271.301 187.144 271.306 187.133C271.301 187.143 271.295 187.154 271.289 187.165Z" fill="#C4DCFF"/>
<path d="M252.964 186.996C252.934 186.475 252.763 185.94 252.355 185.548C253.377 185.668 253.743 185.98 254.132 186.432C255.073 187.525 254.418 188.706 253.833 188.458C253.248 188.21 252.995 187.535 252.964 186.996Z" fill="#93ABCE"/>
<path d="M252.978 185.876C254.006 186.493 254.294 187.916 254.38 188.615L254.241 188.638C254.18 187.183 253.533 186.216 252.978 185.876C252.961 185.866 252.943 185.855 252.925 185.845C252.942 185.855 252.96 185.865 252.978 185.876Z" fill="#C4DCFF"/>
<path d="M253.922 186.334C254.08 186.571 253.998 186.905 253.945 187.064L253.913 187.055C254.048 186.737 254.007 186.464 253.922 186.334C253.92 186.33 253.917 186.326 253.914 186.322C253.917 186.326 253.92 186.33 253.922 186.334Z" fill="#C4DCFF"/>
<path d="M253.388 186.484C253.465 186.62 253.639 186.663 253.725 186.676L253.727 186.658C253.55 186.645 253.431 186.558 253.388 186.484C253.387 186.482 253.386 186.479 253.384 186.477C253.385 186.479 253.387 186.482 253.388 186.484Z" fill="#C4DCFF"/>
<path d="M254.301 186.881C254.392 187.15 254.227 187.452 254.135 187.592L254.106 187.574C254.318 187.301 254.349 187.027 254.301 186.881C254.299 186.876 254.297 186.871 254.296 186.867C254.297 186.871 254.299 186.876 254.301 186.881Z" fill="#C4DCFF"/>
<path d="M253.4 186.976C253.538 187.225 253.873 187.305 254.038 187.331L254.044 187.298C253.7 187.272 253.476 187.11 253.4 186.976C253.398 186.972 253.395 186.967 253.393 186.963C253.395 186.967 253.398 186.972 253.4 186.976Z" fill="#C4DCFF"/>
<path d="M253.348 187.515C253.539 187.877 253.988 188.001 254.209 188.044L254.217 187.997C253.757 187.949 253.453 187.711 253.348 187.515C253.344 187.509 253.341 187.503 253.338 187.497C253.341 187.503 253.344 187.509 253.348 187.515Z" fill="#C4DCFF"/>
<path d="M66.6876 216.244H57.3577C46.5479 216.244 51.2117 213.168 53.9463 212.572C47.8336 210.484 52.3377 206.551 55.4274 208.192C53.4971 201.035 60.0923 202.526 61.3792 206.551C63.953 202.376 68.457 204.464 65.7224 208.937C70.3874 206.999 70.3874 210.876 68.457 212.068C73.122 212.814 70.5148 214.212 67.9411 214.212C70.9974 215.852 68.7454 216.244 66.6876 216.244Z" fill="#839FC7"/>
<path d="M71.8622 215.808H67.098C61.5781 215.808 63.9596 214.168 65.356 213.85C62.2346 212.737 64.5346 210.639 66.1123 211.514C65.1266 207.697 68.4944 208.492 69.1515 210.639C70.4658 208.412 72.7657 209.526 71.3693 211.912C73.7514 210.878 73.7514 212.945 72.7657 213.582C75.1478 213.979 73.8165 214.725 72.5022 214.725C74.0629 215.599 72.913 215.808 71.8622 215.808Z" fill="#C4DCFF"/>
<path d="M50.5634 205.21C50.3104 204.852 49.9496 204.545 49.4838 204.447C50.2675 204.077 50.6683 204.138 51.1476 204.287C52.3061 204.65 52.364 205.785 51.8356 205.868C51.3071 205.951 50.8255 205.582 50.5634 205.21Z" fill="#839FC7"/>
<path d="M50.0755 204.404C51.0845 204.387 51.9236 205.276 52.2965 205.738L52.2069 205.816C51.5161 204.803 50.6234 204.4 50.0755 204.404C50.0581 204.404 50.0406 204.405 50.0231 204.406C50.0402 204.405 50.0576 204.404 50.0755 204.404Z" fill="#C4DCFF"/>
<path d="M50.954 204.311C51.1723 204.41 51.2622 204.686 51.2954 204.822L51.2682 204.83C51.2227 204.543 51.072 204.366 50.954 204.311C50.9503 204.309 50.9465 204.308 50.9426 204.306C50.9464 204.308 50.9502 204.309 50.954 204.311Z" fill="#C4DCFF"/>
<path d="M50.6386 204.655C50.7542 204.718 50.8976 204.67 50.9648 204.642L50.9585 204.628C50.8258 204.698 50.7016 204.688 50.6386 204.655C50.6366 204.654 50.6346 204.653 50.6326 204.651C50.6346 204.653 50.6365 204.654 50.6386 204.655Z" fill="#C4DCFF"/>
<path d="M51.468 204.534C51.6535 204.685 51.6693 204.975 51.6662 205.115L51.638 205.116C51.668 204.827 51.5679 204.617 51.468 204.534C51.4648 204.531 51.4616 204.528 51.4583 204.526C51.4615 204.528 51.4648 204.531 51.468 204.534Z" fill="#C4DCFF"/>
<path d="M50.8662 205.001C51.0754 205.117 51.3505 205.025 51.4802 204.971L51.4702 204.944C51.2122 205.079 50.9803 205.063 50.8662 205.001C50.8626 204.999 50.859 204.997 50.8554 204.995C50.8589 204.997 50.8625 204.999 50.8662 205.001Z" fill="#C4DCFF"/>
<path d="M51.0688 205.411C51.3661 205.584 51.743 205.473 51.9199 205.405L51.9046 205.368C51.554 205.539 51.231 205.504 51.0688 205.411C51.0637 205.408 51.0586 205.405 51.0535 205.402C51.0584 205.405 51.0635 205.408 51.0688 205.411Z" fill="#C4DCFF"/>
<path d="M72.3039 208.258C72.5569 207.899 72.9177 207.593 73.3835 207.495C72.5998 207.125 72.1989 207.185 71.7196 207.335C70.5611 207.698 70.5032 208.833 71.0317 208.916C71.5602 208.999 72.0418 208.63 72.3039 208.258Z" fill="#839FC7"/>
<path d="M72.7918 207.452C71.7827 207.435 70.9437 208.324 70.5708 208.785L70.6603 208.864C71.3512 207.851 72.2439 207.448 72.7918 207.452C72.8092 207.452 72.8267 207.453 72.8442 207.454C72.8271 207.453 72.8096 207.452 72.7918 207.452Z" fill="#C4DCFF"/>
<path d="M71.9132 207.359C71.695 207.458 71.6051 207.733 71.5718 207.87L71.599 207.878C71.6445 207.591 71.7952 207.414 71.9132 207.359C71.917 207.357 71.9208 207.356 71.9246 207.354C71.9209 207.356 71.917 207.357 71.9132 207.359Z" fill="#C4DCFF"/>
<path d="M72.2287 207.703C72.113 207.765 71.9697 207.718 71.9025 207.69L71.9087 207.676C72.0415 207.746 72.1656 207.736 72.2287 207.703C72.2307 207.701 72.2326 207.7 72.2346 207.699C72.2327 207.7 72.2307 207.701 72.2287 207.703Z" fill="#C4DCFF"/>
<path d="M71.3992 207.581C71.2138 207.733 71.1979 208.023 71.2011 208.163L71.2293 208.164C71.1993 207.874 71.2993 207.665 71.3992 207.581C71.4024 207.579 71.4057 207.576 71.409 207.574C71.4057 207.576 71.4025 207.579 71.3992 207.581Z" fill="#C4DCFF"/>
<path d="M72.0011 208.049C71.7919 208.165 71.5168 208.073 71.3871 208.018L71.397 207.992C71.655 208.127 71.8869 208.111 72.0011 208.049C72.0047 208.047 72.0083 208.045 72.0118 208.042C72.0084 208.045 72.0048 208.047 72.0011 208.049Z" fill="#C4DCFF"/>
<path d="M71.7985 208.459C71.5011 208.632 71.1243 208.521 70.9473 208.453L70.9627 208.416C71.3132 208.587 71.6363 208.551 71.7985 208.459C71.8036 208.456 71.8087 208.453 71.8138 208.45C71.8088 208.453 71.8037 208.456 71.7985 208.459Z" fill="#C4DCFF"/>
<path d="M62.5775 203.145C62.608 202.708 62.758 202.259 63.1054 201.933C62.2436 202.023 61.932 202.282 61.5997 202.659C60.7966 203.569 61.3353 204.57 61.8303 204.367C62.3254 204.165 62.5459 203.599 62.5775 203.145Z" fill="#839FC7"/>
<path d="M62.577 202.203C61.7051 202.712 61.4481 203.907 61.3682 204.495L61.4854 204.515C61.5514 203.291 62.1062 202.484 62.577 202.203C62.592 202.195 62.6073 202.186 62.6227 202.178C62.6075 202.186 62.5923 202.194 62.577 202.203Z" fill="#C4DCFF"/>
<path d="M61.7775 202.579C61.642 202.777 61.708 203.059 61.7504 203.194L61.7777 203.186C61.6677 202.917 61.7049 202.687 61.7775 202.579C61.7799 202.576 61.7823 202.573 61.7847 202.569C61.7823 202.573 61.7799 202.576 61.7775 202.579Z" fill="#C4DCFF"/>
<path d="M62.2256 202.709C62.1592 202.823 62.0122 202.857 61.9401 202.867L61.9382 202.852C62.0878 202.843 62.189 202.77 62.2256 202.709C62.2267 202.707 62.2278 202.705 62.2289 202.703C62.2279 202.705 62.2268 202.707 62.2256 202.709Z" fill="#C4DCFF"/>
<path d="M61.4531 203.036C61.373 203.261 61.5095 203.517 61.5851 203.636L61.6095 203.622C61.4339 203.39 61.4107 203.158 61.4531 203.036C61.4545 203.032 61.4559 203.028 61.4575 203.024C61.4559 203.028 61.4545 203.032 61.4531 203.036Z" fill="#C4DCFF"/>
<path d="M62.2105 203.124C62.092 203.332 61.809 203.396 61.6697 203.416L61.6645 203.389C61.9549 203.37 62.1451 203.237 62.2105 203.124C62.2125 203.121 62.2145 203.117 62.2165 203.113C62.2146 203.117 62.2126 203.121 62.2105 203.124Z" fill="#C4DCFF"/>
<path d="M62.2491 203.579C62.0844 203.881 61.7045 203.981 61.5179 204.015L61.5118 203.975C61.9001 203.939 62.1583 203.742 62.2491 203.579C62.2519 203.574 62.2547 203.568 62.2574 203.563C62.2548 203.568 62.252 203.573 62.2491 203.579Z" fill="#C4DCFF"/>
<path d="M53.3932 203.06C53.3785 202.802 53.2935 202.536 53.0915 202.342C53.5979 202.402 53.7793 202.556 53.9721 202.78C54.438 203.322 54.1137 203.907 53.8239 203.784C53.5342 203.661 53.4085 203.327 53.3932 203.06Z" fill="#839FC7"/>
<path d="M53.4005 202.504C53.9098 202.81 54.0522 203.515 54.0949 203.861L54.0258 203.872C53.9959 203.152 53.6754 202.673 53.4005 202.504C53.3917 202.499 53.3828 202.494 53.3738 202.489C53.3826 202.494 53.3915 202.499 53.4005 202.504Z" fill="#C4DCFF"/>
<path d="M53.8681 202.732C53.9464 202.849 53.9055 203.014 53.8795 203.093L53.8635 203.089C53.9302 202.931 53.91 202.796 53.8681 202.732C53.8667 202.73 53.8653 202.728 53.8639 202.726C53.8653 202.728 53.8667 202.73 53.8681 202.732Z" fill="#C4DCFF"/>
<path d="M53.6035 202.806C53.6417 202.874 53.728 202.895 53.7703 202.901L53.7715 202.893C53.6836 202.886 53.6245 202.843 53.6035 202.806C53.6028 202.805 53.6022 202.804 53.6016 202.803C53.6022 202.804 53.6028 202.805 53.6035 202.806Z" fill="#C4DCFF"/>
<path d="M54.0556 203.002C54.1011 203.135 54.0189 203.285 53.9735 203.354L53.9593 203.346C54.0643 203.211 54.0796 203.075 54.0556 203.002C54.0548 203 54.054 202.997 54.0531 202.995C54.054 202.997 54.0548 203 54.0556 203.002Z" fill="#C4DCFF"/>
<path d="M53.6093 203.049C53.6775 203.173 53.8435 203.212 53.9253 203.225L53.9286 203.209C53.7579 203.196 53.6469 203.116 53.6093 203.049C53.6081 203.047 53.607 203.045 53.6058 203.043C53.6069 203.045 53.6081 203.047 53.6093 203.049Z" fill="#C4DCFF"/>
<path d="M53.5833 203.317C53.678 203.496 53.9007 203.558 54.0103 203.579L54.0141 203.555C53.7859 203.532 53.6355 203.414 53.5833 203.317C53.5816 203.314 53.58 203.311 53.5785 203.308C53.58 203.311 53.5816 203.314 53.5833 203.317Z" fill="#C4DCFF"/>
<path d="M69.474 206.107C69.4887 205.85 69.5737 205.584 69.7757 205.39C69.2693 205.449 69.0878 205.604 68.8951 205.828C68.4292 206.37 68.7535 206.955 69.0433 206.832C69.333 206.709 69.4587 206.375 69.474 206.107Z" fill="#839FC7"/>
<path d="M69.4668 205.552C68.9575 205.857 68.815 206.563 68.7723 206.909L68.8414 206.92C68.8713 206.199 69.1918 205.72 69.4668 205.552C69.4756 205.547 69.4845 205.542 69.4935 205.537C69.4846 205.541 69.4757 205.547 69.4668 205.552Z" fill="#C4DCFF"/>
<path d="M68.9991 205.779C68.9208 205.897 68.9617 206.062 68.9877 206.141L69.0036 206.136C68.937 205.979 68.9572 205.843 68.9991 205.779C69.0005 205.777 69.0019 205.775 69.0033 205.773C69.0019 205.775 69.0005 205.777 68.9991 205.779Z" fill="#C4DCFF"/>
<path d="M69.2637 205.854C69.2255 205.921 69.1392 205.943 69.0969 205.949L69.0956 205.94C69.1836 205.934 69.2426 205.89 69.2637 205.854C69.2644 205.853 69.265 205.852 69.2656 205.851C69.265 205.852 69.2644 205.853 69.2637 205.854Z" fill="#C4DCFF"/>
<path d="M68.8116 206.05C68.7661 206.183 68.8483 206.333 68.8936 206.402L68.9079 206.394C68.8029 206.258 68.7876 206.122 68.8116 206.05C68.8124 206.048 68.8132 206.045 68.8141 206.043C68.8132 206.045 68.8124 206.047 68.8116 206.05Z" fill="#C4DCFF"/>
<path d="M69.2579 206.098C69.1897 206.221 69.0237 206.261 68.9419 206.274L68.9386 206.257C69.1093 206.244 69.2203 206.164 69.2579 206.098C69.2591 206.096 69.2602 206.093 69.2614 206.091C69.2603 206.093 69.2591 206.096 69.2579 206.098Z" fill="#C4DCFF"/>
<path d="M69.2839 206.365C69.1892 206.544 68.9665 206.605 68.8569 206.627L68.853 206.603C69.0813 206.579 69.2317 206.461 69.2839 206.365C69.2855 206.362 69.2871 206.359 69.2887 206.355C69.2872 206.359 69.2856 206.362 69.2839 206.365Z" fill="#C4DCFF"/>
<path d="M102.728 216.244H93.398C82.5883 216.244 87.252 213.168 89.9866 212.572C83.874 210.484 88.378 206.551 91.4677 208.192C89.5374 201.035 96.1327 202.526 97.4195 206.551C99.9933 202.376 104.497 204.464 101.763 208.937C106.428 206.999 106.428 210.876 104.497 212.068C109.162 212.814 106.555 214.212 103.981 214.212C107.038 215.852 104.786 216.244 102.728 216.244Z" fill="#839FC7"/>
<path d="M107.903 215.808H103.138C97.6184 215.808 99.9999 214.168 101.396 213.85C98.275 212.737 100.575 210.639 102.153 211.514C101.167 207.697 104.535 208.492 105.192 210.639C106.506 208.412 108.806 209.526 107.41 211.912C109.792 210.878 109.792 212.945 108.806 213.582C111.188 213.979 109.857 214.725 108.543 214.725C110.103 215.599 108.953 215.808 107.903 215.808Z" fill="#839FC7"/>
<path d="M86.6038 205.21C86.3508 204.852 85.99 204.545 85.5242 204.447C86.3079 204.077 86.7087 204.138 87.188 204.287C88.3465 204.65 88.4044 205.785 87.876 205.868C87.3475 205.951 86.8659 205.582 86.6038 205.21Z" fill="#839FC7"/>
<path d="M86.1159 204.404C87.125 204.387 87.964 205.276 88.3369 205.738L88.2473 205.816C87.5565 204.803 86.6638 204.4 86.1159 204.404C86.0985 204.404 86.081 204.405 86.0635 204.406C86.0806 204.405 86.098 204.404 86.1159 204.404Z" fill="#C4DCFF"/>
<path d="M86.9944 204.311C87.2127 204.41 87.3026 204.686 87.3358 204.822L87.3086 204.83C87.2631 204.543 87.1124 204.366 86.9944 204.311C86.9907 204.309 86.9869 204.308 86.983 204.306C86.9868 204.308 86.9906 204.309 86.9944 204.311Z" fill="#C4DCFF"/>
<path d="M86.6789 204.655C86.7946 204.718 86.9379 204.67 87.0051 204.642L86.9989 204.628C86.8661 204.698 86.742 204.688 86.6789 204.655C86.6769 204.654 86.675 204.653 86.673 204.651C86.6749 204.653 86.6769 204.654 86.6789 204.655Z" fill="#C4DCFF"/>
<path d="M87.5083 204.534C87.6938 204.685 87.7096 204.975 87.7065 205.115L87.6782 205.116C87.7082 204.827 87.6082 204.617 87.5083 204.534C87.5051 204.531 87.5018 204.528 87.4985 204.526C87.5018 204.528 87.505 204.531 87.5083 204.534Z" fill="#C4DCFF"/>
<path d="M86.9067 205.001C87.1159 205.117 87.391 205.025 87.5207 204.971L87.5107 204.944C87.2527 205.079 87.0209 205.063 86.9067 205.001C86.9031 204.999 86.8995 204.997 86.8959 204.995C86.8994 204.997 86.903 204.999 86.9067 205.001Z" fill="#C4DCFF"/>
<path d="M87.1091 205.411C87.4065 205.584 87.7833 205.473 87.9603 205.405L87.9449 205.368C87.5944 205.539 87.2713 205.504 87.1091 205.411C87.104 205.408 87.0989 205.405 87.0938 205.402C87.0987 205.405 87.1039 205.408 87.1091 205.411Z" fill="#C4DCFF"/>
<path d="M108.344 208.258C108.597 207.899 108.958 207.593 109.424 207.495C108.64 207.125 108.239 207.185 107.76 207.335C106.601 207.698 106.543 208.833 107.072 208.916C107.6 208.999 108.082 208.63 108.344 208.258Z" fill="#839FC7"/>
<path d="M108.832 207.452C107.823 207.435 106.984 208.324 106.611 208.785L106.701 208.864C107.391 207.851 108.284 207.448 108.832 207.452C108.849 207.452 108.867 207.453 108.884 207.454C108.867 207.453 108.85 207.452 108.832 207.452Z" fill="#C4DCFF"/>
<path d="M107.953 207.359C107.735 207.458 107.645 207.733 107.612 207.87L107.639 207.878C107.685 207.591 107.836 207.414 107.953 207.359C107.957 207.357 107.961 207.356 107.965 207.354C107.961 207.356 107.957 207.357 107.953 207.359Z" fill="#C4DCFF"/>
<path d="M108.269 207.703C108.153 207.765 108.01 207.718 107.943 207.69L107.949 207.676C108.082 207.746 108.206 207.736 108.269 207.703C108.271 207.701 108.273 207.7 108.275 207.699C108.273 207.7 108.271 207.701 108.269 207.703Z" fill="#C4DCFF"/>
<path d="M107.44 207.581C107.254 207.733 107.238 208.023 107.241 208.163L107.27 208.164C107.24 207.874 107.34 207.665 107.44 207.581C107.443 207.579 107.446 207.576 107.449 207.574C107.446 207.576 107.443 207.579 107.44 207.581Z" fill="#C4DCFF"/>
<path d="M108.041 208.049C107.832 208.165 107.557 208.073 107.427 208.018L107.437 207.992C107.695 208.127 107.927 208.111 108.041 208.049C108.045 208.047 108.048 208.045 108.052 208.042C108.049 208.045 108.045 208.047 108.041 208.049Z" fill="#C4DCFF"/>
<path d="M107.839 208.459C107.541 208.632 107.165 208.521 106.988 208.453L107.003 208.416C107.354 208.587 107.677 208.551 107.839 208.459C107.844 208.456 107.849 208.453 107.854 208.45C107.849 208.453 107.844 208.456 107.839 208.459Z" fill="#C4DCFF"/>
<path d="M98.6179 203.145C98.6485 202.708 98.7984 202.259 99.1459 201.933C98.284 202.023 97.9724 202.282 97.6401 202.659C96.837 203.569 97.3757 204.57 97.8707 204.367C98.3658 204.165 98.5863 203.599 98.6179 203.145Z" fill="#839FC7"/>
<path d="M98.6174 202.203C97.7455 202.712 97.4885 203.907 97.4086 204.495L97.5258 204.515C97.5918 203.291 98.1466 202.484 98.6174 202.203C98.6324 202.195 98.6477 202.186 98.6631 202.178C98.648 202.186 98.6327 202.194 98.6174 202.203Z" fill="#C4DCFF"/>
<path d="M97.8178 202.579C97.6823 202.777 97.7483 203.059 97.7907 203.194L97.8179 203.186C97.708 202.917 97.7452 202.687 97.8178 202.579C97.8202 202.576 97.8226 202.573 97.825 202.569C97.8226 202.573 97.8202 202.576 97.8178 202.579Z" fill="#C4DCFF"/>
<path d="M98.2659 202.709C98.1995 202.823 98.0525 202.857 97.9804 202.867L97.9785 202.852C98.1281 202.843 98.2293 202.77 98.2659 202.709C98.267 202.707 98.2681 202.705 98.2692 202.703C98.2682 202.705 98.2671 202.707 98.2659 202.709Z" fill="#C4DCFF"/>
<path d="M97.4934 203.036C97.4133 203.261 97.5498 203.517 97.6254 203.636L97.6498 203.622C97.4742 203.39 97.451 203.158 97.4934 203.036C97.4948 203.032 97.4962 203.028 97.4977 203.024C97.4962 203.028 97.4948 203.032 97.4934 203.036Z" fill="#C4DCFF"/>
<path d="M98.2508 203.124C98.1323 203.332 97.8493 203.396 97.71 203.416L97.7049 203.389C97.9952 203.37 98.1855 203.237 98.2508 203.124C98.2529 203.121 98.2549 203.117 98.2568 203.113C98.255 203.117 98.253 203.121 98.2508 203.124Z" fill="#C4DCFF"/>
<path d="M98.2895 203.579C98.1248 203.881 97.7449 203.981 97.5583 204.015L97.5522 203.975C97.9405 203.939 98.1987 203.742 98.2895 203.579C98.2923 203.574 98.2951 203.568 98.2978 203.563C98.2952 203.568 98.2924 203.573 98.2895 203.579Z" fill="#C4DCFF"/>
<path d="M89.4337 203.06C89.4189 202.802 89.334 202.536 89.1319 202.342C89.6384 202.402 89.8198 202.556 90.0125 202.78C90.4784 203.322 90.1542 203.907 89.8644 203.784C89.5746 203.661 89.449 203.327 89.4337 203.06Z" fill="#839FC7"/>
<path d="M89.441 202.504C89.9503 202.81 90.0928 203.515 90.1355 203.861L90.0663 203.872C90.0364 203.152 89.716 202.673 89.441 202.504C89.4322 202.499 89.4233 202.494 89.4143 202.489C89.4232 202.494 89.4321 202.499 89.441 202.504Z" fill="#C4DCFF"/>
<path d="M89.9085 202.732C89.9868 202.849 89.9459 203.014 89.9199 203.093L89.904 203.089C89.9706 202.931 89.9504 202.796 89.9085 202.732C89.9071 202.73 89.9057 202.728 89.9043 202.726C89.9057 202.728 89.9071 202.73 89.9085 202.732Z" fill="#C4DCFF"/>
<path d="M89.644 202.806C89.6822 202.874 89.7684 202.895 89.8108 202.901L89.812 202.893C89.724 202.886 89.665 202.843 89.644 202.806C89.6433 202.805 89.6427 202.804 89.642 202.803C89.6426 202.804 89.6433 202.805 89.644 202.806Z" fill="#C4DCFF"/>
<path d="M90.096 203.002C90.1415 203.135 90.0594 203.285 90.014 203.354L89.9998 203.346C90.1048 203.211 90.1201 203.075 90.096 203.002C90.0953 203 90.0944 202.997 90.0936 202.995C90.0944 202.997 90.0953 203 90.096 203.002Z" fill="#C4DCFF"/>
<path d="M89.6497 203.049C89.718 203.173 89.884 203.212 89.9658 203.225L89.969 203.209C89.7983 203.196 89.6874 203.116 89.6497 203.049C89.6486 203.047 89.6474 203.045 89.6463 203.043C89.6474 203.045 89.6485 203.047 89.6497 203.049Z" fill="#C4DCFF"/>
<path d="M89.6239 203.317C89.7186 203.496 89.9413 203.558 90.0509 203.579L90.0547 203.555C89.8265 203.532 89.6761 203.414 89.6239 203.317C89.6222 203.314 89.6206 203.311 89.6191 203.308C89.6206 203.311 89.6222 203.314 89.6239 203.317Z" fill="#C4DCFF"/>
<path d="M105.514 206.107C105.529 205.85 105.614 205.584 105.816 205.39C105.31 205.449 105.128 205.604 104.936 205.828C104.47 206.37 104.794 206.955 105.084 206.832C105.373 206.709 105.499 206.375 105.514 206.107Z" fill="#839FC7"/>
<path d="M105.507 205.552C104.998 205.857 104.855 206.563 104.813 206.909L104.882 206.92C104.912 206.199 105.232 205.72 105.507 205.552C105.516 205.547 105.525 205.542 105.534 205.537C105.525 205.541 105.516 205.547 105.507 205.552Z" fill="#C4DCFF"/>
<path d="M105.04 205.779C104.961 205.897 105.002 206.062 105.028 206.141L105.044 206.136C104.978 205.979 104.998 205.843 105.04 205.779C105.041 205.777 105.042 205.775 105.044 205.773C105.042 205.775 105.041 205.777 105.04 205.779Z" fill="#C4DCFF"/>
<path d="M105.304 205.854C105.266 205.921 105.18 205.943 105.137 205.949L105.136 205.94C105.224 205.934 105.283 205.89 105.304 205.854C105.305 205.853 105.305 205.852 105.306 205.851C105.305 205.852 105.305 205.853 105.304 205.854Z" fill="#C4DCFF"/>
<path d="M104.852 206.05C104.807 206.183 104.889 206.333 104.934 206.402L104.948 206.394C104.843 206.258 104.828 206.122 104.852 206.05C104.853 206.048 104.854 206.045 104.855 206.043C104.854 206.045 104.853 206.047 104.852 206.05Z" fill="#C4DCFF"/>
<path d="M105.298 206.098C105.23 206.221 105.064 206.261 104.982 206.274L104.979 206.257C105.15 206.244 105.261 206.164 105.298 206.098C105.3 206.096 105.301 206.093 105.302 206.091C105.301 206.093 105.3 206.096 105.298 206.098Z" fill="#C4DCFF"/>
<path d="M105.324 206.365C105.23 206.544 105.007 206.605 104.897 206.627L104.893 206.603C105.122 206.579 105.272 206.461 105.324 206.365C105.326 206.362 105.327 206.359 105.329 206.355C105.328 206.359 105.326 206.362 105.324 206.365Z" fill="#C4DCFF"/>
<rect x="173.411" y="101.089" width="7.03226" height="114.274" fill="#C4DCFF"/>
<rect x="173.411" y="101.089" width="5.27419" height="114.274" fill="#839FC7"/>
<path d="M198.886 39.1728C202.195 39.1728 205.253 40.9381 206.907 43.8037L228.426 81.0756C230.081 83.9412 230.081 87.4717 228.426 90.3373L206.907 127.609C205.253 130.475 202.195 132.24 198.886 132.24L155.848 132.24C152.54 132.24 149.482 130.475 147.828 127.609L126.309 90.3373C124.654 87.4717 124.654 83.9412 126.309 81.0756L147.828 43.8037C149.482 40.9381 152.54 39.1728 155.849 39.1728L198.886 39.1728Z" fill="#839FC7"/>
<path fill-rule="evenodd" clip-rule="evenodd" d="M137.009 108.871C170.914 105.189 197.303 76.4682 197.303 41.5843C197.303 40.7771 197.289 39.9732 197.261 39.1729H155.849C152.54 39.1729 149.482 40.9381 147.828 43.8037L126.309 81.0757C124.654 83.9412 124.654 87.4717 126.309 90.3373L137.009 108.871Z" fill="white" fill-opacity="0.15"/>
<path d="M196.073 45.1445C198.497 45.1445 200.737 46.4378 201.949 48.5372L221.2 81.8809C222.412 83.9803 222.412 86.5669 221.2 88.6664L201.949 122.01C200.737 124.109 198.497 125.403 196.073 125.403L157.571 125.403C155.146 125.403 152.906 124.109 151.694 122.01L132.443 88.6664C131.231 86.5669 131.231 83.9803 132.443 81.8809L151.694 48.5372C152.906 46.4378 155.146 45.1445 157.571 45.1445L196.073 45.1445Z" stroke="white" stroke-width="3"/>
<path d="M164.992 97.4037V92.8037H162.752V86.3237H157.512V92.8037H152.192L160.072 74.2037H154.832L146.952 92.8037V97.4037H157.512V101.804H162.752V97.4037H164.992ZM170.412 99.8837C171.772 101.484 173.852 102.244 176.652 102.244C179.452 102.244 181.492 101.444 182.852 99.8437C184.212 98.2437 184.892 95.8837 184.892 92.7237V82.9637C184.892 79.9237 184.212 77.6437 182.852 76.0837C181.492 74.5637 179.452 73.7637 176.652 73.7637C173.932 73.7637 171.892 74.5637 170.492 76.1237C169.092 77.6837 168.412 79.9637 168.412 82.9637V92.7237C168.412 95.9237 169.052 98.2837 170.412 99.8837ZM179.012 96.4837C178.612 97.2837 177.812 97.6837 176.652 97.6837C175.492 97.6837 174.692 97.2837 174.292 96.4837C173.892 95.6837 173.692 94.2837 173.692 92.2837V83.7237C173.692 81.7637 173.892 80.3637 174.292 79.5637C174.692 78.7637 175.452 78.3637 176.652 78.3637C177.812 78.3637 178.612 78.7637 179.012 79.5637C179.412 80.3637 179.652 81.7637 179.652 83.7237V92.2837C179.652 94.2837 179.412 95.6837 179.012 96.4837ZM206.32 97.4037V92.8037H204.08V86.3237H198.84V92.8037H193.52L201.4 74.2037H196.16L188.28 92.8037V97.4037H198.84V101.804H204.08V97.4037H206.32Z" fill="white"/>
<path d="M128.015 148.557H136.695L156.423 210.107H108.288L128.015 148.557Z" fill="#FFCE2B"/>
<path fill-rule="evenodd" clip-rule="evenodd" d="M128.015 148.557H136.695L144.662 173.413H120.048L128.015 148.557ZM117.772 180.515L114.864 189.589H149.847L146.938 180.515H117.772ZM112.587 196.691H152.123L156.423 210.107H108.288L112.587 196.691Z" fill="black"/>
<rect x="96.0565" y="210.106" width="72.5977" height="5.52374" fill="black"/>
<path fill-rule="evenodd" clip-rule="evenodd" d="M108.288 210.106L110.185 204.188H154.526L156.423 210.106H108.288Z" fill="#FFCE2B"/>
<mask id="mask0_12800_108441" style="mask-type:alpha" maskUnits="userSpaceOnUse" x="96" y="148" width="73" height="68">
<path fill-rule="evenodd" clip-rule="evenodd" d="M128.015 148.557H136.695L144.662 173.413H120.048L128.015 148.557ZM117.772 180.515L114.864 189.589H149.847L146.938 180.515H117.772ZM112.587 196.691H152.123L156.423 210.107H108.288L112.587 196.691Z" fill="#2F63FF"/>
<rect x="96.0565" y="210.106" width="72.5977" height="5.52374" fill="#2F63FF"/>
<path fill-rule="evenodd" clip-rule="evenodd" d="M108.288 210.106L110.185 204.188H154.526L156.423 210.106H108.288Z" fill="black" fill-opacity="0.2"/>
</mask>
<g mask="url(#mask0_12800_108441)">
<circle cx="86.5872" cy="133.564" r="73.7814" fill="white" fill-opacity="0.2"/>
</g>
<path d="M2 216.242H353.613" stroke="#C4DCFF" stroke-width="4" stroke-linecap="round" stroke-linejoin="round"/>
</svg>
